<?xml version="1.0" encoding="UTF-8"?>
<svg xmlns="http://www.w3.org/2000/svg" xmlns:xlink="http://www.w3.org/1999/xlink"
     width="300.000000" height="163.636364" viewBox="245.894428 -323.753666 300.000000 163.636364">
<defs>
<style type="text/css">
.l0d1 {fill:none;stroke:black;stroke-dasharray:8,8;}
.l0d0 {stroke: #F38400; fill: #F38400; fill-opacity: 0.5;}
</style>
</defs>
<rect x="245.894428" y="-323.753666" width="300.000000" height="163.636364" fill="none" stroke="none"/>
<g id="apply_repetition" transform="scale(1 -1)">
<polygon id="0x5640dc8f3e60" class="l0d0" points="527.859238,175.953079 532.258065,175.953079 532.258065,307.917889 527.859238,307.917889 527.859238,310.117302 263.929619,310.117302 263.929619,307.917889 259.530792,307.917889 259.530792,239.736070 268.328446,239.736070 268.328446,305.718475 277.126100,305.718475 277.126100,239.736070 285.923754,239.736070 285.923754,305.718475 312.316716,305.718475 312.316716,239.736070 321.114370,239.736070 321.114370,305.718475 382.697947,305.718475 382.697947,239.736070 391.495601,239.736070 391.495601,305.718475 523.460411,305.718475 523.460411,239.736070 391.495601,239.736070 382.697947,239.736070 321.114370,239.736070 312.316716,239.736070 285.923754,239.736070 277.126100,239.736070 268.328446,239.736070 259.530792,239.736070 259.530792,204.545455 268.328446,204.545455 268.328446,235.337243 277.126100,235.337243 277.126100,204.545455 285.923754,204.545455 285.923754,235.337243 312.316716,235.337243 312.316716,204.545455 321.114370,204.545455 321.114370,235.337243 382.697947,235.337243 382.697947,204.545455 391.495601,204.545455 391.495601,235.337243 523.460411,235.337243 523.460411,204.545455 391.495601,204.545455 382.697947,204.545455 321.114370,204.545455 312.316716,204.545455 285.923754,204.545455 277.126100,204.545455 268.328446,204.545455 259.530792,204.545455 259.530792,186.950147 268.328446,186.950147 268.328446,200.146628 277.126100,200.146628 277.126100,186.950147 285.923754,186.950147 285.923754,200.146628 312.316716,200.146628 312.316716,186.950147 321.114370,186.950147 321.114370,200.146628 382.697947,200.146628 382.697947,186.950147 391.495601,186.950147 391.495601,200.146628 523.460411,200.146628 523.460411,186.950147 391.495601,186.950147 382.697947,186.950147 321.114370,186.950147 312.316716,186.950147 285.923754,186.950147 277.126100,186.950147 268.328446,186.950147 259.530792,186.950147 259.530792,178.152493 268.328446,178.152493 268.328446,182.551320 277.126100,182.551320 277.126100,178.152493 285.923754,178.152493 285.923754,182.551320 312.316716,182.551320 312.316716,178.152493 321.114370,178.152493 321.114370,182.551320 382.697947,182.551320 382.697947,178.152493 391.495601,178.152493 391.495601,182.551320 523.460411,182.551320 523.460411,178.152493 391.495601,178.152493 382.697947,178.152493 321.114370,178.152493 312.316716,178.152493 285.923754,178.152493 277.126100,178.152493 268.328446,178.152493 259.530792,178.152493 259.530792,175.953079 263.929619,175.953079 263.929619,173.753666 527.859238,173.753666"/>
</g>
</svg>