<?xml version="1.0" encoding="UTF-8"?>
<svg xmlns="http://www.w3.org/2000/svg" xmlns:xlink="http://www.w3.org/1999/xlink"
     width="300.000000" height="188.026608" viewBox="-18.070953 -169.955654 300.000000 188.026608">
<defs>
<style type="text/css">
.l0d1 {fill:none;stroke:black;stroke-dasharray:8,8;}
.l0d0 {stroke: #F38400; fill: #F38400; fill-opacity: 0.5;}
</style>
</defs>
<rect x="-18.070953" y="-169.955654" width="300.000000" height="188.026608" fill="none" stroke="none"/>
<g id="repetitions" transform="scale(1 -1)">
<polygon id="0x557f8209f810" class="l0d0" points="4.434590,-4.434590 4.434590,4.434590 -4.434590,4.434590 -4.434590,-4.434590"/>
<use href="#0x557f8209f810" x="0.000000" y="44.345898"/>
<use href="#0x557f8209f810" x="44.345898" y="0.000000"/>
<use href="#0x557f8209f810" x="44.345898" y="44.345898"/>
<use href="#0x557f8209f810" x="88.691796" y="0.000000"/>
<use href="#0x557f8209f810" x="88.691796" y="44.345898"/>
<polygon id="0x557f8209f8d0" class="l0d0" points="4.434590,108.304433 0.000000,115.985368 -4.434590,108.304433"/>
<use href="#0x557f8209f8d0" x="17.738359" y="8.869180"/>
<use href="#0x557f8209f8d0" x="35.476718" y="17.738359"/>
<use href="#0x557f8209f8d0" x="53.215078" y="26.607539"/>
<use href="#0x557f8209f8d0" x="70.953437" y="35.476718"/>
<use href="#0x557f8209f8d0" x="17.738359" y="-13.303769"/>
<use href="#0x557f8209f8d0" x="35.476718" y="-4.434590"/>
<use href="#0x557f8209f8d0" x="53.215078" y="4.434590"/>
<use href="#0x557f8209f8d0" x="70.953437" y="13.303769"/>
<use href="#0x557f8209f8d0" x="88.691796" y="22.172949"/>
<use href="#0x557f8209f8d0" x="35.476718" y="-26.607539"/>
<use href="#0x557f8209f8d0" x="53.215078" y="-17.738359"/>
<use href="#0x557f8209f8d0" x="70.953437" y="-8.869180"/>
<use href="#0x557f8209f8d0" x="88.691796" y="0.000000"/>
<use href="#0x557f8209f8d0" x="106.430155" y="8.869180"/>
<polygon id="0x557f8209f980" class="l0d0" points="159.645233,0.000000 158.346372,3.135729 155.210643,4.434590 152.074914,3.135729 150.776053,0.000000 152.074914,-3.135729 155.210643,-4.434590 158.346372,-3.135729"/>
<use href="#0x557f8209f980" x="22.172949" y="44.345898"/>
<use href="#0x557f8209f980" x="88.691796" y="0.000000"/>
<use href="#0x557f8209f980" x="66.518847" y="22.172949"/>
<polygon id="0x557f823d5320" class="l0d0" points="130.820399,88.691796 135.254989,88.691796 135.254989,155.210643 130.820399,155.210643"/>
<use href="#0x557f823d5320" x="8.869180" y="0.000000"/>
<use href="#0x557f823d5320" x="26.607539" y="0.000000"/>
<use href="#0x557f823d5320" x="62.084257" y="0.000000"/>
<use href="#0x557f823d5320" x="133.037694" y="0.000000"/>
<polygon id="0x557f823d5f10" class="l0d0" points="166.297118,87.583149 199.556541,87.583149 232.815965,87.583149 266.075388,87.583149 266.075388,89.800443 232.815965,89.800443 199.556541,89.800443 166.297118,89.800443 133.037694,89.800443 133.037694,87.583149"/>
<use href="#0x557f823d5f10" x="0.000000" y="4.434590"/>
<use href="#0x557f823d5f10" x="0.000000" y="13.303769"/>
<use href="#0x557f823d5f10" x="0.000000" y="31.042129"/>
<use href="#0x557f823d5f10" x="0.000000" y="66.518847"/>
</g>
</svg>